<mxfile host="app.diagrams.net" agent="Mozilla/5.0 (Windows NT 10.0; Win64; x64) AppleWebKit/537.36 (KHTML, like Gecko) Chrome/135.0.0.0 Safari/537.36" version="26.2.14">
  <diagram name="Página-1" id="BGD62SCd4SlIzhXcsPhD">
    <mxGraphModel dx="872" dy="1642" grid="1" gridSize="10" guides="1" tooltips="1" connect="1" arrows="1" fold="1" page="1" pageScale="1" pageWidth="827" pageHeight="1169" math="0" shadow="0">
      <root>
        <mxCell id="0" />
        <mxCell id="1" parent="0" />
        <mxCell id="c-k_OdhlWmI5xw33POUm-2" value="Usuario" style="swimlane;whiteSpace=wrap;html=1;fillStyle=auto;rounded=0;glass=0;shadow=0;swimlaneLine=1;" vertex="1" parent="1">
          <mxGeometry x="20" width="180" height="180" as="geometry" />
        </mxCell>
        <mxCell id="c-k_OdhlWmI5xw33POUm-3" value="&lt;font style=&quot;font-size: 13px;&quot;&gt;email&lt;/font&gt;&lt;div&gt;&lt;font style=&quot;font-size: 13px;&quot;&gt;nombreApellido&lt;/font&gt;&lt;/div&gt;&lt;div&gt;&lt;font style=&quot;font-size: 13px;&quot;&gt;contraseña&lt;/font&gt;&lt;/div&gt;" style="text;html=1;align=left;verticalAlign=middle;resizable=0;points=[];autosize=1;strokeColor=none;fillColor=none;" vertex="1" parent="c-k_OdhlWmI5xw33POUm-2">
          <mxGeometry x="10" y="40" width="110" height="60" as="geometry" />
        </mxCell>
        <mxCell id="c-k_OdhlWmI5xw33POUm-10" value="Ticketek" style="swimlane;whiteSpace=wrap;html=1;fillStyle=auto;rounded=0;glass=0;shadow=0;swimlaneLine=1;" vertex="1" parent="1">
          <mxGeometry x="40" y="-460" width="400" height="280" as="geometry" />
        </mxCell>
        <mxCell id="c-k_OdhlWmI5xw33POUm-11" value="&lt;div&gt;&lt;span style=&quot;font-size: 13px;&quot;&gt;map&amp;lt;email,usuario&amp;gt;usuarios&lt;/span&gt;&lt;/div&gt;&lt;div&gt;&lt;span style=&quot;font-size: 13px;&quot;&gt;map&amp;lt;nombre,espectaculo&amp;gt;espectaculos&lt;/span&gt;&lt;/div&gt;&lt;div&gt;&lt;span style=&quot;font-size: 13px;&quot;&gt;map&amp;lt;nombre,sede&amp;gt;sedes&lt;/span&gt;&lt;/div&gt;" style="text;html=1;align=left;verticalAlign=middle;resizable=0;points=[];autosize=1;strokeColor=none;fillColor=none;" vertex="1" parent="c-k_OdhlWmI5xw33POUm-10">
          <mxGeometry x="10" y="40" width="260" height="60" as="geometry" />
        </mxCell>
        <mxCell id="c-k_OdhlWmI5xw33POUm-12" value="Sede" style="swimlane;whiteSpace=wrap;html=1;fillStyle=auto;rounded=0;glass=0;shadow=0;swimlaneLine=1;startSize=23;" vertex="1" parent="1">
          <mxGeometry x="540" y="30" width="180" height="180" as="geometry" />
        </mxCell>
        <mxCell id="c-k_OdhlWmI5xw33POUm-13" value="&lt;div&gt;&lt;span style=&quot;font-size: 13px;&quot;&gt;nombre&lt;/span&gt;&lt;/div&gt;&lt;div&gt;&lt;span style=&quot;font-size: 13px;&quot;&gt;capacidadMax&lt;/span&gt;&lt;/div&gt;&lt;div&gt;&lt;span style=&quot;font-size: 13px;&quot;&gt;direccion&lt;/span&gt;&lt;/div&gt;" style="text;html=1;align=left;verticalAlign=middle;resizable=0;points=[];autosize=1;strokeColor=none;fillColor=none;" vertex="1" parent="c-k_OdhlWmI5xw33POUm-12">
          <mxGeometry x="10" y="40" width="110" height="60" as="geometry" />
        </mxCell>
        <mxCell id="c-k_OdhlWmI5xw33POUm-14" value="Teatro" style="swimlane;whiteSpace=wrap;html=1;fillStyle=auto;rounded=0;glass=0;shadow=0;swimlaneLine=1;startSize=20;" vertex="1" parent="1">
          <mxGeometry x="750" y="290" width="180" height="180" as="geometry">
            <mxRectangle x="750" y="290" width="70" height="30" as="alternateBounds" />
          </mxGeometry>
        </mxCell>
        <mxCell id="c-k_OdhlWmI5xw33POUm-15" value="&lt;div&gt;&lt;br&gt;&lt;/div&gt;&lt;div&gt;&lt;span style=&quot;font-size: 13px;&quot;&gt;sectores&lt;/span&gt;&lt;/div&gt;" style="text;html=1;align=left;verticalAlign=middle;resizable=0;points=[];autosize=1;strokeColor=none;fillColor=none;" vertex="1" parent="c-k_OdhlWmI5xw33POUm-14">
          <mxGeometry x="7" y="30" width="70" height="40" as="geometry" />
        </mxCell>
        <mxCell id="c-k_OdhlWmI5xw33POUm-16" value="Estadio" style="swimlane;whiteSpace=wrap;html=1;fillStyle=auto;rounded=0;glass=0;shadow=0;swimlaneLine=1;startSize=23;" vertex="1" parent="1">
          <mxGeometry x="350" y="290" width="180" height="180" as="geometry" />
        </mxCell>
        <mxCell id="c-k_OdhlWmI5xw33POUm-17" value="&lt;div&gt;&lt;br&gt;&lt;/div&gt;" style="text;html=1;align=left;verticalAlign=middle;resizable=0;points=[];autosize=1;strokeColor=none;fillColor=none;" vertex="1" parent="c-k_OdhlWmI5xw33POUm-16">
          <mxGeometry x="10" y="55" width="20" height="30" as="geometry" />
        </mxCell>
        <mxCell id="c-k_OdhlWmI5xw33POUm-19" value="MiniEstadio" style="swimlane;whiteSpace=wrap;html=1;fillStyle=auto;rounded=0;glass=0;shadow=0;swimlaneLine=1;startSize=23;" vertex="1" parent="1">
          <mxGeometry x="550" y="290" width="180" height="180" as="geometry" />
        </mxCell>
        <mxCell id="c-k_OdhlWmI5xw33POUm-20" value="&lt;div&gt;&lt;span style=&quot;font-size: 13px; background-color: transparent; color: light-dark(rgb(0, 0, 0), rgb(255, 255, 255));&quot;&gt;sectores&lt;/span&gt;&lt;/div&gt;&lt;div&gt;&lt;span style=&quot;font-size: 13px;&quot;&gt;cantPuestosMerch&lt;/span&gt;&lt;/div&gt;&lt;div&gt;&lt;span style=&quot;font-size: 13px;&quot;&gt;cantPuestosComida&lt;/span&gt;&lt;/div&gt;" style="text;html=1;align=left;verticalAlign=middle;resizable=0;points=[];autosize=1;strokeColor=none;fillColor=none;" vertex="1" parent="c-k_OdhlWmI5xw33POUm-19">
          <mxGeometry x="10" y="40" width="140" height="60" as="geometry" />
        </mxCell>
        <mxCell id="c-k_OdhlWmI5xw33POUm-21" value="" style="endArrow=block;html=1;rounded=0;exitX=0.5;exitY=0;exitDx=0;exitDy=0;entryX=0.25;entryY=1;entryDx=0;entryDy=0;endFill=0;" edge="1" parent="1" source="c-k_OdhlWmI5xw33POUm-16" target="c-k_OdhlWmI5xw33POUm-12">
          <mxGeometry width="50" height="50" relative="1" as="geometry">
            <mxPoint x="530" y="300" as="sourcePoint" />
            <mxPoint x="580" y="250" as="targetPoint" />
          </mxGeometry>
        </mxCell>
        <mxCell id="c-k_OdhlWmI5xw33POUm-22" value="" style="endArrow=block;html=1;rounded=0;exitX=0.5;exitY=0;exitDx=0;exitDy=0;endFill=0;" edge="1" parent="1" source="c-k_OdhlWmI5xw33POUm-19">
          <mxGeometry width="50" height="50" relative="1" as="geometry">
            <mxPoint x="637.5" y="290" as="sourcePoint" />
            <mxPoint x="640" y="210" as="targetPoint" />
          </mxGeometry>
        </mxCell>
        <mxCell id="c-k_OdhlWmI5xw33POUm-23" value="" style="endArrow=block;html=1;rounded=0;exitX=0.5;exitY=0;exitDx=0;exitDy=0;endFill=0;" edge="1" parent="1" source="c-k_OdhlWmI5xw33POUm-14">
          <mxGeometry width="50" height="50" relative="1" as="geometry">
            <mxPoint x="640" y="300" as="sourcePoint" />
            <mxPoint x="700" y="210" as="targetPoint" />
          </mxGeometry>
        </mxCell>
        <mxCell id="c-k_OdhlWmI5xw33POUm-24" value="Sector" style="swimlane;whiteSpace=wrap;html=1;" vertex="1" parent="1">
          <mxGeometry x="650" y="510" width="190" height="150" as="geometry" />
        </mxCell>
        <mxCell id="c-k_OdhlWmI5xw33POUm-25" value="PlateaComun" style="swimlane;whiteSpace=wrap;html=1;startSize=23;" vertex="1" parent="1">
          <mxGeometry x="514" y="750" width="190" height="150" as="geometry" />
        </mxCell>
        <mxCell id="c-k_OdhlWmI5xw33POUm-26" value="PlateaAlta" style="swimlane;whiteSpace=wrap;html=1;" vertex="1" parent="1">
          <mxGeometry x="720" y="750" width="190" height="150" as="geometry" />
        </mxCell>
        <mxCell id="c-k_OdhlWmI5xw33POUm-27" value="PlateaBaja" style="swimlane;whiteSpace=wrap;html=1;" vertex="1" parent="1">
          <mxGeometry x="930" y="750" width="190" height="150" as="geometry" />
        </mxCell>
        <mxCell id="c-k_OdhlWmI5xw33POUm-28" value="PlateaVip" style="swimlane;whiteSpace=wrap;html=1;" vertex="1" parent="1">
          <mxGeometry x="300" y="750" width="190" height="150" as="geometry" />
        </mxCell>
        <mxCell id="c-k_OdhlWmI5xw33POUm-29" value="" style="endArrow=block;html=1;rounded=0;entryX=0;entryY=1;entryDx=0;entryDy=0;endFill=0;" edge="1" parent="1" target="c-k_OdhlWmI5xw33POUm-24">
          <mxGeometry width="50" height="50" relative="1" as="geometry">
            <mxPoint x="400" y="750" as="sourcePoint" />
            <mxPoint x="450" y="700" as="targetPoint" />
          </mxGeometry>
        </mxCell>
        <mxCell id="c-k_OdhlWmI5xw33POUm-30" value="" style="endArrow=block;html=1;rounded=0;entryX=1;entryY=1;entryDx=0;entryDy=0;exitX=0.5;exitY=0;exitDx=0;exitDy=0;endFill=0;" edge="1" parent="1" source="c-k_OdhlWmI5xw33POUm-27" target="c-k_OdhlWmI5xw33POUm-24">
          <mxGeometry width="50" height="50" relative="1" as="geometry">
            <mxPoint x="410" y="760" as="sourcePoint" />
            <mxPoint x="660" y="670" as="targetPoint" />
          </mxGeometry>
        </mxCell>
        <mxCell id="c-k_OdhlWmI5xw33POUm-31" value="" style="endArrow=block;html=1;rounded=0;endFill=0;exitX=0.5;exitY=0;exitDx=0;exitDy=0;" edge="1" parent="1" source="c-k_OdhlWmI5xw33POUm-25">
          <mxGeometry width="50" height="50" relative="1" as="geometry">
            <mxPoint x="410" y="760" as="sourcePoint" />
            <mxPoint x="720" y="660" as="targetPoint" />
          </mxGeometry>
        </mxCell>
        <mxCell id="c-k_OdhlWmI5xw33POUm-32" value="" style="endArrow=block;html=1;rounded=0;endFill=0;exitX=0.5;exitY=0;exitDx=0;exitDy=0;" edge="1" parent="1" source="c-k_OdhlWmI5xw33POUm-26">
          <mxGeometry width="50" height="50" relative="1" as="geometry">
            <mxPoint x="619" y="760" as="sourcePoint" />
            <mxPoint x="790" y="660" as="targetPoint" />
          </mxGeometry>
        </mxCell>
        <mxCell id="c-k_OdhlWmI5xw33POUm-33" value="" style="endArrow=none;html=1;rounded=0;exitX=0.589;exitY=-0.007;exitDx=0;exitDy=0;exitPerimeter=0;" edge="1" parent="1" source="c-k_OdhlWmI5xw33POUm-24">
          <mxGeometry width="50" height="50" relative="1" as="geometry">
            <mxPoint x="780" y="520" as="sourcePoint" />
            <mxPoint x="830" y="470" as="targetPoint" />
          </mxGeometry>
        </mxCell>
        <mxCell id="c-k_OdhlWmI5xw33POUm-34" value="" style="endArrow=none;html=1;rounded=0;exitX=0.4;exitY=0;exitDx=0;exitDy=0;exitPerimeter=0;" edge="1" parent="1" source="c-k_OdhlWmI5xw33POUm-24">
          <mxGeometry width="50" height="50" relative="1" as="geometry">
            <mxPoint x="575" y="510" as="sourcePoint" />
            <mxPoint x="643" y="471" as="targetPoint" />
          </mxGeometry>
        </mxCell>
        <mxCell id="c-k_OdhlWmI5xw33POUm-35" value="Entrada" style="swimlane;whiteSpace=wrap;html=1;fillStyle=auto;rounded=0;glass=0;shadow=0;swimlaneLine=1;" vertex="1" parent="1">
          <mxGeometry x="20" y="200" width="180" height="180" as="geometry" />
        </mxCell>
        <mxCell id="c-k_OdhlWmI5xw33POUm-36" value="&lt;div&gt;&lt;span style=&quot;font-size: 13px;&quot;&gt;codigo&lt;/span&gt;&lt;/div&gt;&lt;div&gt;&lt;span style=&quot;font-size: 13px;&quot;&gt;nombreEspectaculo&lt;/span&gt;&lt;/div&gt;&lt;div&gt;&lt;span style=&quot;font-size: 13px;&quot;&gt;fecha&lt;/span&gt;&lt;/div&gt;&lt;div&gt;&lt;span style=&quot;font-size: 13px;&quot;&gt;ubicacion&lt;/span&gt;&lt;/div&gt;" style="text;html=1;align=left;verticalAlign=middle;resizable=0;points=[];autosize=1;strokeColor=none;fillColor=none;" vertex="1" parent="c-k_OdhlWmI5xw33POUm-35">
          <mxGeometry x="10" y="30" width="140" height="80" as="geometry" />
        </mxCell>
        <mxCell id="c-k_OdhlWmI5xw33POUm-37" value="" style="endArrow=none;html=1;rounded=0;entryX=0.5;entryY=1;entryDx=0;entryDy=0;" edge="1" parent="1" source="c-k_OdhlWmI5xw33POUm-35" target="c-k_OdhlWmI5xw33POUm-2">
          <mxGeometry width="50" height="50" relative="1" as="geometry">
            <mxPoint x="80" y="220" as="sourcePoint" />
            <mxPoint x="120" y="180" as="targetPoint" />
          </mxGeometry>
        </mxCell>
        <mxCell id="c-k_OdhlWmI5xw33POUm-38" value="Espectaculo" style="swimlane;whiteSpace=wrap;html=1;fillStyle=auto;rounded=0;glass=0;shadow=0;swimlaneLine=1;" vertex="1" parent="1">
          <mxGeometry x="280" y="-160" width="180" height="180" as="geometry" />
        </mxCell>
        <mxCell id="c-k_OdhlWmI5xw33POUm-39" value="&lt;div&gt;&lt;span style=&quot;font-size: 13px;&quot;&gt;nombre&lt;/span&gt;&lt;/div&gt;&lt;div&gt;&lt;span style=&quot;font-size: 13px;&quot;&gt;funcion&lt;/span&gt;&lt;/div&gt;&lt;div&gt;&lt;span style=&quot;font-size: 13px;&quot;&gt;codigo&lt;/span&gt;&lt;/div&gt;" style="text;html=1;align=left;verticalAlign=middle;resizable=0;points=[];autosize=1;strokeColor=none;fillColor=none;" vertex="1" parent="c-k_OdhlWmI5xw33POUm-38">
          <mxGeometry x="10" y="40" width="70" height="60" as="geometry" />
        </mxCell>
        <mxCell id="c-k_OdhlWmI5xw33POUm-40" value="Funcion" style="swimlane;whiteSpace=wrap;html=1;fillStyle=auto;rounded=0;glass=0;shadow=0;swimlaneLine=1;" vertex="1" parent="1">
          <mxGeometry x="280" y="40" width="180" height="180" as="geometry" />
        </mxCell>
        <mxCell id="c-k_OdhlWmI5xw33POUm-41" value="&lt;div&gt;&lt;span style=&quot;font-size: 13px;&quot;&gt;nombre&lt;/span&gt;&lt;/div&gt;&lt;div&gt;&lt;span style=&quot;font-size: 13px;&quot;&gt;funcion&lt;/span&gt;&lt;/div&gt;&lt;div&gt;&lt;span style=&quot;font-size: 13px;&quot;&gt;codigo&lt;/span&gt;&lt;/div&gt;" style="text;html=1;align=left;verticalAlign=middle;resizable=0;points=[];autosize=1;strokeColor=none;fillColor=none;" vertex="1" parent="c-k_OdhlWmI5xw33POUm-40">
          <mxGeometry x="10" y="40" width="70" height="60" as="geometry" />
        </mxCell>
        <mxCell id="c-k_OdhlWmI5xw33POUm-43" value="" style="endArrow=none;html=1;rounded=0;entryX=0.5;entryY=0;entryDx=0;entryDy=0;exitX=0.5;exitY=1;exitDx=0;exitDy=0;" edge="1" parent="1" source="c-k_OdhlWmI5xw33POUm-38" target="c-k_OdhlWmI5xw33POUm-40">
          <mxGeometry width="50" height="50" relative="1" as="geometry">
            <mxPoint x="260" y="50" as="sourcePoint" />
            <mxPoint x="120" y="190" as="targetPoint" />
          </mxGeometry>
        </mxCell>
        <mxCell id="c-k_OdhlWmI5xw33POUm-44" value="puestoMerch" style="swimlane;whiteSpace=wrap;html=1;" vertex="1" parent="1">
          <mxGeometry x="300" y="530" width="140" height="130" as="geometry" />
        </mxCell>
        <mxCell id="c-k_OdhlWmI5xw33POUm-45" value="puestoComida" style="swimlane;whiteSpace=wrap;html=1;" vertex="1" parent="1">
          <mxGeometry x="470" y="530" width="140" height="130" as="geometry" />
        </mxCell>
        <mxCell id="c-k_OdhlWmI5xw33POUm-46" value="" style="endArrow=none;html=1;rounded=0;exitX=0.5;exitY=0;exitDx=0;exitDy=0;" edge="1" parent="1" source="c-k_OdhlWmI5xw33POUm-45">
          <mxGeometry width="50" height="50" relative="1" as="geometry">
            <mxPoint x="570" y="520" as="sourcePoint" />
            <mxPoint x="620" y="470" as="targetPoint" />
          </mxGeometry>
        </mxCell>
        <mxCell id="c-k_OdhlWmI5xw33POUm-47" value="" style="endArrow=none;html=1;rounded=0;exitX=0.457;exitY=0;exitDx=0;exitDy=0;exitPerimeter=0;" edge="1" parent="1" source="c-k_OdhlWmI5xw33POUm-44">
          <mxGeometry width="50" height="50" relative="1" as="geometry">
            <mxPoint x="490" y="530" as="sourcePoint" />
            <mxPoint x="570" y="470" as="targetPoint" />
          </mxGeometry>
        </mxCell>
      </root>
    </mxGraphModel>
  </diagram>
</mxfile>
